<svg width="401" height="464" viewBox="0 0 401 464" fill="none" xmlns="http://www.w3.org/2000/svg">
<path d="M50.6842 292.844C50.8074 289.148 51.177 285.698 51.5466 285.206V285.082C51.793 284.59 52.2858 284.22 52.5322 284.22C52.9017 284.22 54.1337 284.59 55.2425 284.959C57.0904 285.575 57.3368 287.053 56.844 302.083L69.9027 310.091C77.048 314.526 86.9036 320.686 91.7082 323.766C96.636 326.845 101.441 329.679 102.426 330.172C103.412 330.541 109.571 334.237 115.978 338.303C122.384 342.368 133.471 349.144 140.493 353.456C147.516 357.767 155.154 362.326 157.371 363.681C159.465 365.036 165.872 368.855 171.292 372.304C176.836 375.631 182.749 379.327 184.228 380.312C185.829 381.298 189.895 383.762 193.221 385.61C196.424 387.457 199.627 388.936 200.366 388.936C201.105 388.813 207.635 384.994 215.15 380.312C222.665 375.631 235.97 367.5 244.716 362.326C253.463 357.028 262.087 351.731 263.812 350.622C265.536 349.513 277.117 342.368 289.683 334.73C302.249 327.092 319.249 316.62 342.657 302.083V294.692C342.533 289.271 343.149 286.807 344.628 285.452C346.352 283.85 346.845 283.85 348.324 286.068C349.432 287.546 350.048 291.612 350.048 296.786C350.048 305.04 350.048 305.163 345.367 308.366C342.903 310.091 333.91 315.758 325.409 320.809C316.909 325.983 303.973 333.868 296.458 338.426C288.944 342.984 270.711 354.195 255.804 363.311C240.897 372.551 222.665 383.638 215.15 388.073C207.635 392.632 200.736 396.327 199.75 396.327C198.765 396.327 195.931 395.096 193.591 393.617C191.25 392.139 181.764 386.349 172.647 380.805C163.531 375.261 150.226 367.13 143.081 362.818C135.935 358.63 126.696 352.716 122.384 349.883C118.195 346.926 114.499 344.586 114.13 344.586C113.76 344.586 99.3463 335.962 82.099 325.49C53.6409 308.243 50.6842 306.026 50.561 302.946C50.4378 301.098 50.561 296.539 50.6842 292.844Z" fill="black"/>
<path d="M51.0539 272.886C50.8075 271.284 55.4889 267.712 68.9171 259.581H68.794C78.8959 253.544 87.8892 248.616 88.8748 248.863C89.8603 248.986 90.7227 250.218 90.7227 251.573C90.7227 253.421 87.0268 256.255 76.3089 262.661C68.3012 267.465 61.895 272.024 61.7718 272.886C61.7718 273.625 63.8661 275.596 66.33 277.075C68.9171 278.553 72.3666 280.524 74.0913 281.386C75.8161 282.249 83.2078 286.807 90.7227 291.612C98.2376 296.293 110.064 303.561 117.21 307.873C124.355 312.062 133.718 317.975 138.153 320.809C142.588 323.765 146.53 326.106 147.023 326.106C147.639 326.106 150.719 328.077 154.168 330.418C157.494 332.759 160.574 334.73 160.944 334.73C161.313 334.73 165.256 337.071 169.814 340.027C174.495 342.984 182.257 347.789 187.308 350.868C192.235 353.825 196.547 356.659 196.794 357.275C197.04 357.767 198.026 358.137 198.765 358.137C199.627 358.26 217.49 347.789 238.557 334.976C259.623 322.041 279.211 310.091 282.291 308.243C285.371 306.395 289.806 303.561 292.147 302.083C294.487 300.605 305.821 293.583 317.278 286.561C328.736 279.538 338.222 273.379 338.468 272.886C338.714 272.27 335.758 269.929 331.939 267.465C327.996 265.001 321.59 260.936 317.771 258.472C313.706 255.885 310.749 253.175 310.626 251.943C310.626 250.711 311.119 249.479 311.858 249.109C312.597 248.74 314.938 249.356 317.155 250.588C319.25 251.696 327.134 256.501 334.649 261.306C342.164 266.233 348.57 270.792 349.186 271.654C349.679 272.393 349.309 273.871 348.447 274.734C347.584 275.473 341.055 279.785 334.033 284.097C326.888 288.532 306.93 300.728 289.683 311.323C272.435 322.041 246.688 337.81 232.397 346.433C218.106 355.18 205.048 362.941 203.2 363.927C200.366 365.159 199.134 365.282 196.424 364.05C194.453 363.188 192.728 362.202 192.359 361.833C191.989 361.34 184.597 356.782 175.727 351.361C166.857 346.064 152.567 337.44 143.697 332.02C134.827 326.599 123 319.33 117.21 315.758C111.419 312.062 97.0056 303.315 85.1789 296.17C73.3522 288.901 60.9095 281.263 57.46 279.046C54.1337 276.828 51.1771 273.995 51.0539 272.886Z" fill="black"/>
<path fill-rule="evenodd" clip-rule="evenodd" d="M210.171 76.381C205.366 81.0624 200.931 85.0046 200.192 85.0046C199.453 85.0046 195.634 81.6784 191.568 77.6129C187.503 73.5475 183.191 70.2212 182.082 70.2212C180.851 70.2212 179.495 71.0836 179.003 72.1923C178.263 73.5475 180.358 76.381 186.641 82.6639L195.264 91.1644C178.14 108.535 168.531 118.021 162.864 123.565C157.197 129.108 152.146 133.79 151.407 133.913C150.791 134.159 146.849 130.956 142.66 126.891C138.348 122.826 133.913 119.499 132.804 119.499C131.449 119.499 130.587 120.485 130.587 121.963C130.587 123.318 133.913 127.753 137.979 131.819C142.044 135.884 145.37 139.703 145.494 140.196C145.617 140.689 135.884 150.791 123.934 162.618C111.984 174.444 101.759 184.177 101.143 184.177C100.527 184.177 96.0923 180.481 91.2877 175.799C86.4831 171.241 81.8017 167.669 81.0625 167.915C80.2001 168.161 79.3378 169.393 79.0914 170.748C78.845 172.227 81.5553 175.799 86.8527 181.097C91.2877 185.532 94.8603 189.597 94.8603 190.336C94.8603 191.076 91.2877 195.141 86.8527 199.576C82.5408 204.011 78.845 208.569 78.845 209.801C78.845 210.91 79.7073 212.265 80.8161 212.758C82.1712 213.497 85.2511 211.156 91.9037 204.504L101.02 195.264C135.392 229.636 145.37 240.107 145.37 240.846C145.37 241.586 141.305 246.021 136.377 250.948C129.971 257.355 127.753 260.311 128.493 261.666C128.985 262.775 130.341 263.637 131.572 263.637C132.681 263.637 137.732 259.572 142.66 254.644L151.53 245.774C183.068 277.312 192.184 286.675 192.184 287.045C192.184 287.414 188.242 291.849 183.438 296.9C178.633 301.951 174.937 306.879 175.184 307.865C175.43 308.85 176.292 309.836 177.155 310.082C177.894 310.328 182.945 306.263 188.242 301.335L197.728 292.096C215.222 308.973 220.027 312.669 221.135 312.3C222.121 311.93 222.983 310.698 222.983 309.589C222.983 308.357 218.425 302.814 212.758 297.147L202.656 287.045C236.781 252.673 247.006 242.694 247.499 242.694C247.869 242.571 253.289 247.376 259.326 253.166C265.362 258.956 271.276 263.514 272.261 263.391C273.247 263.145 274.232 262.036 274.356 260.804C274.602 259.572 270.66 254.644 264.254 248.238C258.463 242.448 253.782 237.397 253.782 236.781C253.782 236.288 263.514 226.186 275.341 214.359L296.9 192.8C313.655 209.555 319.445 214.359 320.677 214.359C321.786 214.359 323.141 213.374 323.51 212.142C324.126 210.664 321.416 207.091 313.039 198.96L301.828 187.873C319.938 169.886 320.8 168.777 319.075 166.929C318.09 165.821 316.981 164.958 316.611 164.958C316.242 164.958 311.807 168.9 306.756 173.582C301.705 178.387 297.27 182.329 296.9 182.329C296.531 182.329 287.168 173.212 275.957 162.002L255.63 141.674C269.428 127.877 273.493 122.826 273.493 121.594C273.493 120.485 272.508 119.253 271.399 118.883C269.797 118.39 266.594 120.731 260.558 126.891C255.753 131.572 251.441 135.515 250.702 135.515C249.963 135.515 239.491 125.536 227.295 113.34L205.12 91.1644C221.505 74.9026 224.092 71.4532 223.599 69.8516C223.23 68.7429 222.121 67.7573 221.012 67.7573C219.903 67.7573 215.099 71.5764 210.171 76.381ZM178.017 118.144C166.56 129.478 157.197 139.457 157.443 140.319C157.566 141.058 167.422 151.53 179.249 163.357C191.075 175.183 201.177 184.916 201.793 184.916C202.286 184.916 212.388 175.183 224.215 163.357L245.774 141.797C211.403 107.426 200.808 97.4473 200.192 97.4473C199.453 97.4473 189.474 106.687 178.017 118.144ZM106.81 190.583C106.687 189.967 116.296 179.865 128.123 168.038C139.949 156.335 150.298 146.725 151.16 146.725C152.023 146.725 162.494 156.458 174.321 168.284C186.148 180.111 195.88 190.213 195.88 190.706C195.88 191.322 185.901 201.67 173.705 213.867C161.632 226.063 151.283 235.795 151.037 235.426L151.036 235.425L151.033 235.422C150.604 234.992 140.65 225.04 128.739 213.251C116.789 201.424 106.933 191.199 106.81 190.583ZM228.157 169.147L206.844 190.46L247.745 232.346C255.506 224.708 265.485 214.729 274.971 205.243L292.219 187.996C260.927 156.95 251.318 147.957 250.702 147.957C249.963 147.957 239.861 157.566 228.157 169.147ZM179.372 217.809C167.299 229.759 157.69 240.354 157.813 241.093C158.059 241.955 167.176 251.564 178.017 262.405L197.728 282.117C206.105 273.986 216.207 264.007 225.57 254.644C235.056 245.405 242.694 237.397 242.694 236.781C242.571 236.288 233.578 226.925 222.613 215.961C211.649 204.997 202.409 196.003 202.04 195.88C201.67 195.88 191.445 205.736 179.372 217.686V217.809Z" fill="black"/>
<path d="M0 117.79L200.808 0V18.4793L16.6313 127.03V342.005L200.808 445.35V463.829L0 352.5V117.79Z" fill="black"/>
<path d="M200.808 32.6467V25.255L22.7911 129.494V338.31L200.808 437.959V431.183L27.7189 334.614V133.806L200.808 32.6467Z" fill="black"/>
<path fill-rule="evenodd" clip-rule="evenodd" d="M200.808 463.83L401 346.178L384.369 336.939L200.808 445.35V463.83ZM200.808 18.4793L384.369 121.963L401 112.5L200.808 9.15527e-05V18.4793Z" fill="black"/>
<path fill-rule="evenodd" clip-rule="evenodd" d="M200.808 431.183V437.959L378.209 334.475L373.281 330.163L200.808 431.183ZM373.281 129.355L378.209 125.659L200.808 25.2551V32.6468L373.281 129.355Z" fill="black"/>
<path d="M401 346.178L401 112.5L384.369 121.963L384.369 336.939L401 346.178Z" fill="black"/>
<path d="M373.281 129.355L373.281 330.163L378.209 334.475L378.209 125.659L373.281 129.355Z" fill="black"/>
</svg>
