<svg width="123" height="88" viewBox="0 0 123 88" fill="none" xmlns="http://www.w3.org/2000/svg">
<g clip-path="url(#clip0_202_36)">
<path d="M9.55139 55.1871C9.57459 54.4906 9.64425 53.8405 9.7139 53.7477V53.7245C9.76034 53.6317 9.85319 53.562 9.89963 53.562C9.96927 53.562 10.2014 53.6317 10.4104 53.7012C10.7586 53.8174 10.8051 54.0959 10.7122 56.9284L13.1731 58.4374C14.5197 59.2733 16.377 60.434 17.2824 61.0144C18.2111 61.5947 19.1166 62.1288 19.3023 62.2216C19.488 62.2913 20.6488 62.9879 21.856 63.7539C23.0633 64.5202 25.1528 65.7971 26.4762 66.6097C27.7995 67.4222 29.2389 68.2811 29.6568 68.5366C30.0515 68.792 31.2587 69.5117 32.2803 70.1617C33.3251 70.7886 34.4393 71.485 34.718 71.6709C35.0199 71.8565 35.7859 72.3209 36.4128 72.6691C37.0163 73.0173 37.62 73.296 37.7594 73.296C37.8986 73.2726 39.1292 72.5529 40.5452 71.6709C41.9615 70.7886 44.4689 69.2564 46.1172 68.2811C47.7656 67.2829 49.3908 66.2846 49.7158 66.0756C50.0408 65.8666 52.2231 64.5202 54.5913 63.0807C56.9593 61.6413 60.1632 59.668 64.5744 56.9284V55.5353C64.551 54.5139 64.6672 54.0495 64.9457 53.7942C65.2708 53.4923 65.3636 53.4923 65.6423 53.9102C65.8511 54.1889 65.9673 54.9549 65.9673 55.93C65.9673 57.4854 65.9673 57.5088 65.0851 58.1123C64.6207 58.4374 62.9259 59.5055 61.324 60.4572C59.722 61.4322 57.2843 62.9182 55.868 63.7773C54.452 64.6362 51.0159 66.7488 48.2066 68.467C45.3976 70.2081 41.9615 72.2976 40.5452 73.1335C39.1292 73.9923 37.8291 74.6889 37.6432 74.6889C37.4575 74.6889 36.9235 74.4567 36.4825 74.1782C36.0412 73.8995 34.2536 72.8084 32.5357 71.7637C30.8177 70.719 28.3102 69.1867 26.9638 68.3741C25.6172 67.5847 23.8758 66.4703 23.0633 65.9362C22.2739 65.379 21.5775 64.938 21.5078 64.938C21.4382 64.938 18.7219 63.3129 15.4716 61.3394C10.1086 58.0892 9.55139 57.6713 9.52817 57.0909C9.50495 56.7426 9.52817 55.8837 9.55139 55.1871Z" fill="white"/>
<path d="M9.62087 51.4258C9.57443 51.1241 10.4567 50.4507 12.9873 48.9184H12.964C14.8678 47.7809 16.5626 46.8523 16.7483 46.8986C16.9341 46.922 17.0966 47.154 17.0966 47.4095C17.0966 47.7577 16.4001 48.2918 14.3802 49.499C12.8712 50.4044 11.6639 51.2633 11.6407 51.4258C11.6407 51.5652 12.0354 51.9367 12.4997 52.2152C12.9873 52.4939 13.6373 52.8652 13.9623 53.0278C14.2874 53.1903 15.6804 54.0493 17.0966 54.9547C18.5128 55.837 20.7416 57.2067 22.088 58.0193C23.4346 58.8087 25.1991 59.9231 26.0348 60.4572C26.8707 61.0142 27.6136 61.4554 27.7064 61.4554C27.8226 61.4554 28.403 61.8269 29.0531 62.268C29.68 62.709 30.2603 63.0805 30.33 63.0805C30.3997 63.0805 31.1426 63.5217 32.0014 64.0787C32.8837 64.6359 34.3465 65.5415 35.2982 66.1219C36.2269 66.6791 37.0395 67.213 37.086 67.3292C37.1323 67.422 37.318 67.4917 37.4573 67.4917C37.6199 67.5148 40.9863 65.5415 44.9562 63.127C48.9264 60.6892 52.6176 58.4371 53.1982 58.089C53.7786 57.7408 54.6143 57.2067 55.0555 56.9282C55.4965 56.6495 57.6325 55.3263 59.7915 54.0028C61.9507 52.6796 63.7383 51.5188 63.7848 51.4258C63.8313 51.3098 63.2741 50.8688 62.5544 50.4044C61.8113 49.94 60.604 49.1738 59.8845 48.7096C59.1183 48.2221 58.5611 47.7112 58.5379 47.479C58.5379 47.247 58.6308 47.0148 58.7701 46.9452C58.9093 46.8755 59.3505 46.9915 59.7683 47.2237C60.163 47.4327 61.6488 48.3381 63.0651 49.2435C64.4814 50.1722 65.6886 51.0313 65.8046 51.1938C65.8975 51.333 65.8278 51.6117 65.6653 51.7742C65.5028 51.9133 64.2723 52.7261 62.9491 53.5387C61.6025 54.3744 57.8414 56.6729 54.5911 58.6693C51.3407 60.6892 46.4885 63.6609 43.7955 65.286C41.1023 66.9345 38.6414 68.3971 38.2933 68.5827C37.7592 68.8149 37.527 68.8383 37.0163 68.6061C36.6448 68.4436 36.3198 68.2577 36.2501 68.1883C36.1804 68.0952 34.7875 67.2363 33.1158 66.2148C31.4444 65.2165 28.7512 63.5912 27.0796 62.5698C25.4081 61.5482 23.1793 60.1785 22.088 59.5053C20.997 58.8087 18.2806 57.1604 16.0518 55.8138C13.8231 54.444 11.4782 53.0046 10.8281 52.5867C10.2013 52.1689 9.64409 51.6348 9.62087 51.4258Z" fill="white"/>
<path d="M101.78 50.2625C101.734 47.9692 101.734 45.7451 101.826 45.3515V45.3283C101.963 44.6332 102.008 44.5869 103.971 44.5869L104.016 46.4866C104.016 47.5522 104.039 49.4518 104.085 53.0425L109.219 53.1583V44.5869H111.501V49.3824C111.501 54.0387 111.478 54.2239 110.976 54.7335C110.497 55.2434 110.314 55.2666 106.709 55.2666C103.446 55.2666 102.875 55.22 102.419 54.8495C101.894 54.4557 101.871 54.3167 101.78 50.2625Z" fill="white"/>
<path d="M90.7764 55.2553V49.9156V44.5757L93.214 44.599L94.8392 46.8277C95.7445 48.0583 96.5805 49.1725 96.7196 49.3119C96.8358 49.4512 97.2305 49.9851 97.5555 50.496C98.0431 51.2389 98.1824 51.3548 98.2984 51.0298C98.3681 50.7978 98.4378 49.2656 98.4378 44.5757H100.527L100.666 48.1046C100.736 50.0548 100.759 52.4461 100.643 55.1391L98.3216 55.2785L95.8839 52.0283C94.5373 50.2406 93.3766 48.7778 93.2837 48.7547C93.1675 48.7547 93.098 50.2173 93.098 55.2553H90.7764Z" fill="white"/>
<path d="M70.1133 52.1211V48.36V44.5757H72.435V50.9604L73.5494 52.0746C74.1529 52.6783 74.8263 53.1658 75.0351 53.1658C75.2673 53.1658 75.9407 52.7015 77.6587 51.1229L77.6818 44.5757H79.8642L79.8875 52.1211L76.7299 55.2553H73.2475L70.1133 52.1211Z" fill="white"/>
<path d="M111.857 34.2675C111.833 32.0852 111.88 31.6673 112.251 31.2958C112.623 30.9245 113.087 30.8779 116.639 30.8779C120.424 30.8779 120.632 30.9011 121.143 31.412C121.538 31.8067 121.654 32.178 121.654 34.1284H120.493C119.472 34.1284 119.332 34.0587 119.263 33.5943C119.216 33.1068 119.123 33.0836 116.709 33.0139C114.294 32.9674 114.225 32.9906 114.085 33.4781C114.016 33.78 113.993 34.2212 114.039 34.4765C114.109 34.9176 114.318 34.9409 117.243 35.0104L117.274 35.0112C120.308 35.0801 120.402 35.0824 121.027 35.707C121.631 36.3107 121.654 36.4498 121.654 38.4233C121.654 40.3966 121.631 40.536 120.377 41.7201L116.546 41.6504C112.925 41.5807 112.692 41.5342 112.182 41.0467C111.88 40.745 111.671 40.2341 111.671 39.8628C111.671 39.5144 111.787 39.0269 111.903 38.7715C112.042 38.4697 112.367 38.3071 112.762 38.3071C113.133 38.3071 113.528 38.4002 113.668 38.493C113.807 38.5859 113.993 38.8412 114.062 39.0502C114.202 39.4216 114.527 39.4681 119.216 39.3519V37.4946L116.082 37.4249C114.132 37.4017 112.739 37.2624 112.414 37.0767C111.926 36.8214 111.88 36.6357 111.857 34.2675Z" fill="white"/>
<path d="M112.665 47.952C112.642 45.7557 112.687 45.3349 113.05 44.9611C113.413 44.5873 113.867 44.5405 117.336 44.5405C121.032 44.5405 121.236 44.5639 121.735 45.0779C122.121 45.4751 122.234 45.8492 122.234 47.8118H121.1C120.103 47.8118 119.967 47.7417 119.899 47.2744C119.853 46.7838 119.763 46.7604 117.404 46.6903C115.046 46.6436 114.978 46.6669 114.842 47.1576C114.774 47.4614 114.751 47.9053 114.797 48.1623C114.865 48.6062 115.069 48.6296 117.926 48.6997L117.956 48.7003C120.92 48.7698 121.012 48.7719 121.622 49.4006C122.212 50.0081 122.234 50.1483 122.234 52.1343C122.234 54.1206 122.212 54.2608 120.987 55.4524L117.245 55.3823C113.708 55.3122 113.481 55.2654 112.982 54.7748C112.687 54.471 112.483 53.957 112.483 53.5832C112.483 53.2327 112.597 52.7418 112.71 52.4848C112.846 52.1811 113.164 52.0175 113.549 52.0175C113.912 52.0175 114.298 52.111 114.434 52.2044C114.57 52.2979 114.751 52.5549 114.819 52.7652C114.955 53.139 115.273 53.1858 119.853 53.0689V51.1997L116.792 51.1296C114.887 51.1063 113.526 50.9661 113.209 50.7792C112.733 50.5222 112.687 50.3352 112.665 47.952Z" fill="white"/>
<path fill-rule="evenodd" clip-rule="evenodd" d="M102.733 32.4567L101.107 34.0353C101.2 39.8628 101.293 41.5576 101.409 41.5807C101.502 41.5807 101.827 41.6273 102.152 41.6736C102.477 41.6967 102.918 41.6504 103.151 41.5342C103.452 41.3717 103.545 41.0235 103.545 39.9325V38.5393H108.653C108.63 40.6753 108.746 41.3254 108.931 41.5111C109.094 41.6736 109.581 41.7664 110.023 41.7432C110.673 41.6967 110.858 41.5576 110.951 41.0932C111.021 40.7682 111.067 38.3537 111.044 35.6838L110.998 30.8779H104.334L102.733 32.4567ZM104.59 34.0587C103.8 34.8247 103.452 35.3588 103.499 35.707C103.545 36.1945 103.638 36.2176 106.099 36.2176H108.653C108.862 35.0569 108.885 34.3372 108.838 33.8962L108.769 33.0834L105.751 32.9443L104.59 34.0587Z" fill="white"/>
<path d="M91.2402 41.5576V36.2176V30.8779H93.5617V35.2891V39.4681L100.411 39.5841L100.527 41.5576H91.2402Z" fill="white"/>
<path d="M80.9087 41.6736C80.6069 41.5807 80.5605 40.7682 80.5605 36.2176V30.8779H89.8471V32.9674L86.7825 32.9906C85.0877 33.0139 83.5323 33.0371 83.3466 33.0603C83.091 33.0836 82.9982 33.3621 82.9982 35.1729L89.3827 35.2891L89.2667 37.2624L82.9982 37.4946V39.3519L89.8471 39.4681V40.5128C89.8471 41.4414 89.7774 41.5576 89.3364 41.5807C89.0345 41.6039 88.547 41.6504 88.2219 41.6736C87.8969 41.6967 87.3629 41.7432 86.3646 41.7898L86.829 42.4861C87.0844 42.8808 87.3397 43.6934 87.3397 43.7631C87.3397 43.8327 87.1075 43.8793 86.829 43.8793C86.5271 43.9024 86.0861 43.6702 85.8306 43.4149C85.5752 43.1595 85.2271 42.463 85.0877 42.4861C84.9484 42.4861 84.7627 43.1595 84.6233 43.4149C84.4377 43.6702 84.0661 43.8793 83.7411 43.8793C83.4161 43.8793 83.1607 43.7399 83.1607 43.5774C83.1607 43.438 83.3466 42.6023 84.1592 41.7664L82.7197 41.7898C81.9072 41.7898 81.0946 41.7432 80.9087 41.6736Z" fill="white"/>
<path d="M81.0249 55.3713C80.7231 55.2785 80.6768 54.4659 80.6768 49.9156V44.5757H89.9633V46.6652L86.8987 46.6885C85.2039 46.7117 83.6483 46.7349 83.4626 46.758C83.2073 46.7814 83.1144 47.0599 83.1144 48.8709L89.4989 48.9869L89.3829 50.9604L83.1144 51.1923V53.0498L89.9633 53.1658V54.2106C89.9633 55.1391 89.8936 55.2553 89.4524 55.2785C89.1507 55.3016 88.6632 55.3482 88.3382 55.3713C88.0131 55.3947 87.4791 55.441 86.4809 55.4875L84.2752 55.4642L82.8357 55.4875C82.0232 55.4875 81.2106 55.441 81.0249 55.3713Z" fill="white"/>
<path d="M69.8818 31.9227V31.1101C69.8818 30.9476 71.5533 30.9013 79.5165 30.9941L79.6327 32.9674H75.9179V37.2624C75.9179 41.511 75.9179 41.5576 75.4072 41.6969C75.1054 41.7664 74.6178 41.7898 73.7124 41.6736L73.4802 33.0836L71.6926 33.0371C70.671 32.9906 69.8818 32.8746 69.8818 32.7352V31.9227Z" fill="white"/>
<path fill-rule="evenodd" clip-rule="evenodd" d="M39.6072 14.3942C38.7016 15.2764 37.8659 16.0193 37.7265 16.0193C37.5874 16.0193 36.8677 15.3925 36.1014 14.6264C35.3354 13.8602 34.5226 13.2334 34.3138 13.2334C34.0816 13.2334 33.8263 13.3959 33.7334 13.6048C33.5941 13.8602 33.9888 14.3942 35.1729 15.5782L36.798 17.1802C33.5709 20.4537 31.7599 22.2413 30.692 23.2861C29.6241 24.3308 28.6722 25.2131 28.5328 25.2362C28.4169 25.2827 27.6738 24.679 26.8846 23.913C26.072 23.1467 25.2361 22.52 25.0273 22.52C24.7717 22.52 24.6092 22.7057 24.6092 22.9842C24.6092 23.2396 25.2361 24.0755 26.0023 24.8415C26.7684 25.6078 27.3953 26.3275 27.4184 26.4203C27.4418 26.5131 25.6076 28.417 23.3556 30.6456C21.1036 32.8745 19.1767 34.7086 19.0606 34.7086C18.9445 34.7086 18.1087 34.012 17.2033 33.1298C16.2978 32.2709 15.4156 31.5975 15.2763 31.644C15.1138 31.6904 14.9513 31.9225 14.9048 32.1779C14.8584 32.4566 15.3692 33.1298 16.3675 34.1282C17.2033 34.9639 17.8765 35.7302 17.8765 35.8693C17.8765 36.0087 17.2033 36.7747 16.3675 37.6106C15.5549 38.4464 14.8584 39.3054 14.8584 39.5376C14.8584 39.7465 15.0209 40.002 15.2299 40.0948C15.4852 40.234 16.0657 39.793 17.3193 38.5392L19.0373 36.7981C25.5148 43.2754 27.3953 45.2489 27.3953 45.388C27.3953 45.5274 26.629 46.3631 25.7005 47.2919C24.4932 48.4991 24.0754 49.0563 24.2147 49.3117C24.3075 49.5207 24.5629 49.6832 24.7951 49.6832C25.0039 49.6832 25.9558 48.917 26.8846 47.9884L28.556 46.3168C34.4995 52.2602 36.2174 54.0247 36.2174 54.0942C36.2174 54.1639 35.4745 54.9998 34.5691 55.9517C33.6637 56.9034 32.9672 57.8322 33.0137 58.0178C33.06 58.2035 33.2225 58.3894 33.385 58.4357C33.5244 58.4822 34.4763 57.716 35.4745 56.7874L37.2621 55.0461C40.5589 58.2269 41.4645 58.9232 41.6733 58.8537C41.8592 58.7841 42.0217 58.5519 42.0217 58.3428C42.0217 58.1107 41.1626 57.0659 40.0947 55.998L38.1909 54.0942C44.6219 47.6169 46.5489 45.7364 46.6417 45.7364C46.7114 45.7131 47.7328 46.6187 48.8705 47.7097C50.0081 48.801 51.1226 49.6599 51.3082 49.6367C51.4939 49.5904 51.6796 49.3814 51.7029 49.1492C51.7492 48.917 51.0064 47.9884 49.7991 46.7812C48.708 45.6899 47.8258 44.738 47.8258 44.622C47.8258 44.5292 49.6597 42.6253 51.8886 40.3965L55.9514 36.3337C59.109 39.4911 60.2 40.3965 60.4322 40.3965C60.6413 40.3965 60.8966 40.2108 60.9663 39.9786C61.0823 39.7001 60.5716 39.0267 58.9928 37.4944L56.8801 35.405C60.2929 32.0154 60.4554 31.8066 60.1304 31.4582C59.9447 31.2493 59.7357 31.0868 59.6662 31.0868C59.5965 31.0868 58.7606 31.8297 57.8089 32.7119C56.857 33.6173 56.0211 34.3604 55.9514 34.3604C55.8819 34.3604 54.1174 32.6423 52.0046 30.5296L48.174 26.6988C50.7742 24.0986 51.5404 23.1467 51.5404 22.9145C51.5404 22.7057 51.3545 22.4735 51.1457 22.4038C50.8438 22.311 50.2403 22.752 49.1025 23.913C48.1971 24.7952 47.3846 25.5381 47.2452 25.5381C47.1061 25.5381 45.1326 23.6576 42.8343 21.3591L38.6553 17.1802C41.743 14.1156 42.2305 13.4655 42.1377 13.1637C42.068 12.9548 41.8592 12.769 41.6502 12.769C41.4411 12.769 40.5357 13.4887 39.6072 14.3942ZM33.5475 22.2645C31.3884 24.4005 29.6241 26.281 29.6704 26.4435C29.6936 26.5828 31.5509 28.5563 33.7797 30.785C36.0086 33.0138 37.9122 34.848 38.0284 34.848C38.1212 34.848 40.0251 33.0138 42.2537 30.785L46.3167 26.7222C39.8392 20.2448 37.8427 18.3642 37.7265 18.3642C37.5872 18.3642 35.7067 20.1055 33.5475 22.2645ZM20.1285 35.9159C20.1053 35.7997 21.9162 33.896 24.145 31.6672C26.3737 29.4617 28.3238 27.6507 28.4863 27.6507C28.6488 27.6507 30.6223 29.4849 32.8512 31.7137C35.0798 33.9424 36.914 35.8462 36.914 35.939C36.914 36.0552 35.0335 38.0053 32.735 40.3037C30.4598 42.6022 28.5097 44.4363 28.4632 44.3667C28.3935 44.297 26.513 42.4165 24.261 40.1877C22.009 37.9588 20.1517 36.0318 20.1285 35.9159ZM42.9968 31.8762L38.9803 35.8927L46.688 43.7863C48.1508 42.3468 50.0313 40.4662 51.8189 38.6786L55.0691 35.4283C49.1722 29.5777 47.3614 27.8829 47.2452 27.8829C47.1061 27.8829 45.2023 29.6939 42.9968 31.8762ZM33.8029 41.0468C31.5277 43.2988 29.7169 45.2952 29.7401 45.4346C29.7866 45.5971 31.5046 47.4081 33.5475 49.451L37.2621 53.1656C38.8409 51.6334 40.7448 49.7529 42.5092 47.9884C44.2969 46.2471 45.7363 44.738 45.7363 44.622C45.7129 44.5292 44.0182 42.7647 41.952 40.6984C39.8857 38.6322 38.1444 36.9374 38.0747 36.9141C38.0052 36.9141 36.0783 38.7714 33.8029 41.0234V41.0468Z" fill="white"/>
<path d="M0 22.1979L37.8428 0V3.48246L3.13422 23.939V64.4517L37.8428 83.9274V87.4098L0 66.3989V22.1979Z" fill="white"/>
<path d="M37.8427 6.15226V4.75928L4.29492 24.4033V63.7553L37.8427 82.5342V81.2575L5.22357 63.0587V25.2159L37.8427 6.15226Z" fill="white"/>
<path fill-rule="evenodd" clip-rule="evenodd" d="M37.8428 87.4098L75.5694 65.2382L72.4352 63.4969L37.8428 83.9274V87.4098ZM37.8428 3.48246L72.4352 22.9842L75.105 21.2431L37.8428 0V3.48246Z" fill="white"/>
<path fill-rule="evenodd" clip-rule="evenodd" d="M37.8428 81.2575V82.5342L71.2744 63.0324L70.3457 62.2199L37.8428 81.2575ZM70.3457 24.3772L71.2744 23.6807L37.8428 4.75928V6.15226L70.3457 24.3772Z" fill="white"/>
</g>
<defs>
<clipPath id="clip0_202_36">
<rect width="122.249" height="87.4098" fill="white"/>
</clipPath>
</defs>
</svg>
