<svg width="587" height="137" viewBox="0 0 587 137" fill="none" xmlns="http://www.w3.org/2000/svg">
<path d="M433.761 69.4291C433.542 58.4355 433.542 47.775 433.979 45.8872V45.7762C434.636 42.4447 434.854 42.2227 444.261 42.2227L444.48 51.3285C444.48 56.4366 444.59 65.5425 444.808 82.7547L469.42 83.31V42.2227H480.358V65.2093C480.358 87.5297 480.249 88.4181 477.842 90.8611C475.545 93.3042 474.67 93.4152 457.387 93.4152C441.746 93.4152 439.011 93.1931 436.823 91.4164C434.308 89.5286 434.198 88.8623 433.761 69.4291Z" fill="white"/>
<path d="M381.012 93.3596V67.7633V42.167L392.698 42.2783L400.488 52.9619C404.828 58.8602 408.834 64.2021 409.502 64.8698C410.059 65.5375 411.951 68.0971 413.509 70.5455C415.846 74.1067 416.513 74.6631 417.07 73.1051C417.404 71.9922 417.738 64.6472 417.738 42.167H427.753L428.421 59.0828C428.755 68.431 428.866 79.8937 428.31 92.8031L417.181 93.4708L405.496 77.8905C399.041 69.3213 393.477 62.3102 393.032 62.1989C392.475 62.1989 392.141 69.21 392.141 93.3596H381.012Z" fill="white"/>
<path d="M281.966 78.3357V60.307V42.167H293.095V72.7712L298.437 78.1131C301.33 81.0066 304.558 83.3436 305.559 83.3436C306.672 83.3436 309.899 81.1179 318.135 73.5503L318.246 42.167H328.707L328.818 78.3357L313.683 93.3596H296.99L281.966 78.3357Z" fill="white"/>
<path d="M202.175 55.2481C202.064 44.787 202.286 42.7838 204.067 41.0032C205.847 39.2226 208.073 39 225.1 39C243.24 39 244.242 39.1113 246.69 41.5596C248.582 43.4515 249.139 45.2321 249.139 54.5803H243.574C238.677 54.5803 238.01 54.2465 237.676 52.0207C237.453 49.6837 237.008 49.5724 225.434 49.2385C213.86 49.0159 213.526 49.1272 212.859 51.4643C212.525 52.911 212.413 55.0255 212.636 56.2497C212.97 58.3641 213.972 58.4754 227.994 58.8093L228.145 58.8127C242.687 59.1432 243.139 59.1535 246.134 62.1479C249.027 65.0414 249.139 65.7092 249.139 75.1687C249.139 84.6282 249.027 85.2959 243.018 90.9716L224.655 90.6377C207.294 90.3039 206.181 90.0813 203.733 87.7442C202.286 86.2975 201.285 83.8491 201.285 82.0685C201.285 80.3992 201.841 78.0621 202.398 76.838C203.065 75.3912 204.623 74.6122 206.515 74.6122C208.296 74.6122 210.188 75.0574 210.855 75.5025C211.523 75.9477 212.413 77.1718 212.747 78.1734C213.415 79.9541 214.973 80.1766 237.453 79.6202V70.7171L222.429 70.3833C213.081 70.272 206.404 69.6042 204.846 68.7139C202.509 67.4898 202.286 66.5995 202.175 55.2481Z" fill="white"/>
<path d="M485.936 58.3525C485.828 47.8242 486.045 45.8081 487.784 44.0161C489.524 42.224 491.698 42 508.329 42C526.047 42 527.025 42.112 529.417 44.5761C531.264 46.4801 531.808 48.2722 531.808 57.6804H526.373C521.59 57.6804 520.938 57.3444 520.612 55.1044C520.394 52.7523 519.96 52.6403 508.655 52.3043C497.35 52.0803 497.024 52.1923 496.372 54.5443C496.046 56.0004 495.937 58.1284 496.154 59.3605C496.48 61.4885 497.459 61.6005 511.155 61.9366L511.302 61.94C525.506 62.2726 525.948 62.2829 528.873 65.2966C531.699 68.2087 531.808 68.8807 531.808 78.401C531.808 87.9213 531.699 88.5933 525.829 94.3054L507.894 93.9694C490.937 93.6334 489.85 93.4094 487.458 91.0574C486.045 89.6013 485.067 87.1372 485.067 85.3452C485.067 83.6652 485.61 81.3131 486.154 80.0811C486.806 78.625 488.328 77.841 490.176 77.841C491.915 77.841 493.763 78.289 494.415 78.737C495.067 79.185 495.937 80.4171 496.263 81.4251C496.915 83.2171 498.437 83.4411 520.394 82.8811V73.9209L505.72 73.5849C496.589 73.4729 490.067 72.8009 488.545 71.9048C486.263 70.6728 486.045 69.7768 485.936 58.3525Z" fill="white"/>
<path d="M198.28 62.0371C198.391 74.8349 198.169 86.4085 197.835 87.9668C197.39 90.1926 196.499 90.8604 193.383 91.083C191.269 91.1942 188.932 90.7487 188.153 89.9697C187.262 89.0791 186.706 85.9628 186.818 75.7256H162.334V82.4023C162.334 87.6329 161.888 89.302 160.442 90.0811C159.329 90.6374 157.214 90.8603 155.656 90.749L153.458 90.4434C152.819 90.3599 152.318 90.3037 152.095 90.3037C151.539 90.188 151.094 82.0603 150.649 54.1348L158.439 46.5674L166.117 39H198.058L198.28 62.0371ZM167.342 54.2461C163.558 57.9184 161.889 60.4781 162.112 62.1475C162.334 64.4845 162.779 64.5957 174.575 64.5957H186.817C187.818 59.0319 187.93 55.5822 187.707 53.4678L187.373 49.5723L172.906 48.9043L167.342 54.2461Z" fill="white"/>
<path d="M103.351 90.1926V64.5963V39H114.48V60.1448V80.1766L147.31 80.7331L147.866 90.1926H103.351Z" fill="white"/>
<path d="M334.272 93.916C332.825 93.4708 332.602 89.5758 332.602 67.7633V42.167H377.118V52.1829L362.428 52.2942C354.303 52.4055 346.847 52.5168 345.957 52.6281C344.733 52.7394 344.288 54.0748 344.288 62.7553L374.892 63.3117L374.335 72.7712L344.288 73.8841V82.7872L377.118 83.3436V88.3516C377.118 92.8031 376.784 93.3596 374.669 93.4708C373.222 93.5821 370.885 93.8047 369.327 93.916C367.769 94.0273 365.21 94.2499 360.424 94.4724L349.852 94.3611L342.952 94.4724C339.057 94.4724 335.162 94.2499 334.272 93.916Z" fill="white"/>
<path d="M53.6354 90.749C52.1886 90.3038 51.9661 86.4088 51.9661 64.5963V39H96.4813V49.0159L81.7913 49.1272C73.6673 49.2385 66.211 49.3498 65.3206 49.4611C64.0965 49.5724 63.6513 50.9078 63.6513 59.5883L94.2556 60.1448L93.6991 69.6042L63.6513 70.7171V79.6202L96.4813 80.1766V85.1846C96.4813 89.6361 96.1475 90.1926 94.033 90.3038C92.5863 90.4151 90.2492 90.6377 88.6912 90.749C87.1331 90.8603 84.5735 91.0829 79.7881 91.3054L69.2157 91.1942L62.3159 91.3054C58.4208 91.3054 54.5257 91.0829 53.6354 90.749Z" fill="white"/>
<path d="M0.966064 44.008V40.1129C0.966064 39.3339 8.97881 39.1113 47.1507 39.5565L47.7071 49.016H29.901V69.6043C29.901 89.97 29.901 90.1926 27.4527 90.8603C26.0059 91.1942 23.6689 91.3055 19.3286 90.749L18.2157 49.5724L9.64654 49.3498C4.74986 49.1273 0.966064 48.5708 0.966064 47.9031V44.008Z" fill="white"/>
<path d="M354.148 19.4545H355.784V21.7273H354.148V19.4545ZM342.512 36.5455L351.875 16.9091H358.057L367.421 36.5455H362.057L354.693 20.8182H355.239L347.966 36.5455H342.512Z" fill="white"/>
</svg>
